<?xml version="1.0" standalone="no"?>
<!DOCTYPE svg PUBLIC "-//W3C//DTD SVG 20010904//EN"
 "http://www.w3.org/TR/2001/REC-SVG-20010904/DTD/svg10.dtd">
<svg version="1.0" xmlns="http://www.w3.org/2000/svg"
 width="200.000000pt" height="200.000000pt" viewBox="0 0 200.000000 200.000000"
 preserveAspectRatio="xMidYMid meet">
<metadata>
Created by potrace 1.11, written by Peter Selinger 2001-2013
</metadata>
<g transform="translate(0.000000,200.000000) scale(0.100000,-0.100000)"
fill="#000000" stroke="none">
<path d="M365 1787 c-57 -23 -91 -49 -122 -96 -59 -89 -58 -72 -58 -741 l1
-615 29 -54 c31 -56 88 -106 148 -128 45 -16 1180 -18 1228 -1 75 26 153 101
162 155 1 10 6 24 11 31 9 15 9 1096 0 1202 -3 36 -10 79 -16 95 -23 62 -95
137 -149 153 -44 13 -1201 12 -1234 -1z m747 -288 c76 -22 188 -98 188 -128 0
-6 4 -11 8 -11 14 0 37 -94 35 -146 -2 -52 -32 -121 -48 -106 -5 4 -5 1 -1 -6
8 -13 4 -18 -88 -96 -27 -22 -64 -54 -83 -70 -38 -32 -60 -77 -65 -133 l-4
-38 -97 -3 -97 -3 6 43 c7 45 46 110 86 142 168 137 184 162 174 285 -8 97
-22 135 -60 171 -23 21 -39 25 -100 28 -111 6 -165 -33 -192 -137 l-11 -46
-84 -3 c-46 -2 -94 0 -107 3 -21 5 -21 7 -7 21 8 8 15 21 15 27 1 13 50 116
50 104 0 -4 14 8 31 27 84 96 272 127 451 75z m-56 -962 c9 -10 10 -77 1 -77
-7 0 -7 -4 1 -12 24 -24 10 -28 -98 -28 l-110 0 0 48 c0 54 7 68 35 74 18 4
167 0 171 -5z"/>
</g>
</svg>
